  0
SECTION
  2
HEADER
  9
$ACADVER
  1
AC1009
  9
$DWGCODEPAGE
  3
mac-roman
  9
$INSBASE
 10
0.0
 20
0.0
 30
0.0
  9
$EXTMIN
 10
-39.00000000001411
 20
-39.00000000000002
 30
0.0
  9
$EXTMAX
 10
39.00000000000002
 20
39.00000000000001
 30
0.0
  9
$LIMMIN
 10
0.0
 20
0.0
  9
$LIMMAX
 10
12.0
 20
9.0
  9
$ORTHOMODE
 70
     0
  9
$REGENMODE
 70
     1
  9
$FILLMODE
 70
     1
  9
$QTEXTMODE
 70
     0
  9
$MIRRTEXT
 70
     1
  9
$DRAGMODE
 70
     2
  9
$LTSCALE
 40
1.0
  9
$OSMODE
 70
    37
  9
$ATTMODE
 70
     1
  9
$TEXTSIZE
 40
0.2
  9
$TRACEWID
 40
0.05
  9
$TEXTSTYLE
  7
STANDARD
  9
$CLAYER
  8
CSK_PARTS$MODIFICATIONS
  9
$CELTYPE
  6
BYLAYER
  9
$CECOLOR
 62
   256
  9
$DIMSCALE
 40
1.0
  9
$DIMASZ
 40
0.18
  9
$DIMEXO
 40
0.0625
  9
$DIMDLI
 40
0.38
  9
$DIMRND
 40
0.0
  9
$DIMDLE
 40
0.0
  9
$DIMEXE
 40
0.18
  9
$DIMTP
 40
0.0
  9
$DIMTM
 40
0.0
  9
$DIMTXT
 40
0.18
  9
$DIMCEN
 40
0.09
  9
$DIMTSZ
 40
0.0
  9
$DIMTOL
 70
     0
  9
$DIMLIM
 70
     0
  9
$DIMTIH
 70
     1
  9
$DIMTOH
 70
     1
  9
$DIMSE1
 70
     0
  9
$DIMSE2
 70
     0
  9
$DIMTAD
 70
     0
  9
$DIMZIN
 70
     0
  9
$DIMBLK
  1

  9
$DIMASO
 70
     1
  9
$DIMSHO
 70
     1
  9
$DIMPOST
  1

  9
$DIMAPOST
  1

  9
$DIMALT
 70
     0
  9
$DIMALTD
 70
     2
  9
$DIMALTF
 40
25.4
  9
$DIMLFAC
 40
1.0
  9
$DIMTOFL
 70
     0
  9
$DIMTVP
 40
0.0
  9
$DIMTIX
 70
     0
  9
$DIMSOXD
 70
     0
  9
$DIMSAH
 70
     0
  9
$DIMBLK1
  1

  9
$DIMBLK2
  1

  9
$DIMSTYLE
  2
STANDARD
  9
$DIMCLRD
 70
     0
  9
$DIMCLRE
 70
     0
  9
$DIMCLRT
 70
     0
  9
$DIMTFAC
 40
1.0
  9
$DIMGAP
 40
0.09
  9
$LUNITS
 70
     2
  9
$LUPREC
 70
     3
  9
$SKETCHINC
 40
0.1
  9
$FILLETRAD
 40
0.5
  9
$AUNITS
 70
     0
  9
$AUPREC
 70
     0
  9
$MENU
  1
.
  9
$ELEVATION
 40
0.0
  9
$PELEVATION
 40
0.0
  9
$THICKNESS
 40
0.0
  9
$LIMCHECK
 70
     0
  9
$CHAMFERA
 40
0.0
  9
$CHAMFERB
 40
0.0
  9
$SKPOLY
 70
     0
  9
$TDCREATE
 40
2457607.576527778
  9
$TDUPDATE
 40
2457607.576539352
  9
$TDINDWG
 40
0.0000000116
  9
$TDUSRTIMER
 40
0.0000000116
  9
$USRTIMER
 70
     1
  9
$ANGBASE
 50
0.0
  9
$ANGDIR
 70
     0
  9
$PDMODE
 70
     0
  9
$PDSIZE
 40
0.0
  9
$PLINEWID
 40
0.0
  9
$COORDS
 70
     1
  9
$SPLFRAME
 70
     0
  9
$SPLINETYPE
 70
     6
  9
$SPLINESEGS
 70
     8
  9
$ATTDIA
 70
     0
  9
$ATTREQ
 70
     1
  9
$HANDLING
 70
     1
  9
$HANDSEED
  5
A0
  9
$SURFTAB1
 70
     6
  9
$SURFTAB2
 70
     6
  9
$SURFTYPE
 70
     6
  9
$SURFU
 70
     6
  9
$SURFV
 70
     6
  9
$UCSNAME
  2

  9
$UCSORG
 10
0.0
 20
0.0
 30
0.0
  9
$UCSXDIR
 10
1.0
 20
0.0
 30
0.0
  9
$UCSYDIR
 10
0.0
 20
1.0
 30
0.0
  9
$PUCSNAME
  2

  9
$PUCSORG
 10
0.0
 20
0.0
 30
0.0
  9
$PUCSXDIR
 10
1.0
 20
0.0
 30
0.0
  9
$PUCSYDIR
 10
0.0
 20
1.0
 30
0.0
  9
$USERI1
 70
     0
  9
$USERI2
 70
     0
  9
$USERI3
 70
     0
  9
$USERI4
 70
     0
  9
$USERI5
 70
     0
  9
$USERR1
 40
0.0
  9
$USERR2
 40
0.0
  9
$USERR3
 40
0.0
  9
$USERR4
 40
0.0
  9
$USERR5
 40
0.0
  9
$WORLDVIEW
 70
     1
  9
$SHADEDGE
 70
     3
  9
$SHADEDIF
 70
    70
  9
$TILEMODE
 70
     1
  9
$MAXACTVP
 70
    64
  9
$PLIMCHECK
 70
     0
  9
$PEXTMIN
 10
1.000000000000000E+20
 20
1.000000000000000E+20
 30
1.000000000000000E+20
  9
$PEXTMAX
 10
-1.000000000000000E+20
 20
-1.000000000000000E+20
 30
-1.000000000000000E+20
  9
$PLIMMIN
 10
0.0
 20
0.0
  9
$PLIMMAX
 10
12.0
 20
9.0
  9
$UNITMODE
 70
     0
  9
$VISRETAIN
 70
     1
  9
$PLINEGEN
 70
     0
  9
$PSLTSCALE
 70
     1
  0
ENDSEC
  0
SECTION
  2
TABLES
  0
TABLE
  2
VPORT
 70
     1
  0
VPORT
  2
*ACTIVE
 70
     0
 10
0.0
 20
0.0
 11
1.0
 21
1.0
 12
0.0
 22
0.0
 13
0.0
 23
0.0
 14
0.5
 24
0.5
 15
0.5
 25
0.5
 16
0.0
 26
0.0
 36
1.0
 17
-0.0000000000070486
 27
-0.0000000000000071
 37
0.0
 40
79.56000000000003
 41
1.000000000000181
 42
50.0
 43
0.0
 44
0.0
 50
0.0
 51
0.0
 71
     0
 72
   100
 73
     1
 74
     3
 75
     0
 76
     0
 77
     0
 78
     0
  0
ENDTAB
  0
TABLE
  2
LTYPE
 70
     1
  0
LTYPE
  2
CONTINUOUS
 70
     0
  3
Solid line
 72
    65
 73
     0
 40
0.0
  0
ENDTAB
  0
TABLE
  2
LAYER
 70
     2
  0
LAYER
  2
0
 70
     0
 62
     7
  6
CONTINUOUS
  0
LAYER
  2
CSK_PARTS$MODIFICATIONS
 70
     0
 62
     7
  6
CONTINUOUS
  0
ENDTAB
  0
TABLE
  2
STYLE
 70
     1
  0
STYLE
  2
STANDARD
 70
     0
 40
0.0
 41
1.0
 50
0.0
 71
     0
 42
0.2
  3
txt
  4

  0
ENDTAB
  0
TABLE
  2
VIEW
 70
     0
  0
ENDTAB
  0
TABLE
  2
UCS
 70
     0
  0
ENDTAB
  0
TABLE
  2
APPID
 70
     1
  0
APPID
  2
ACAD
 70
     0
  0
ENDTAB
  0
TABLE
  2
DIMSTYLE
 70
     1
  0
DIMSTYLE
  2
STANDARD
 70
     0
  3

  4

  5

  6

  7

 40
1.0
 41
0.18
 42
0.0625
 43
0.38
 44
0.18
 45
0.0
 46
0.0
 47
0.0
 48
0.0
140
0.18
141
0.09
142
0.0
143
25.4
144
1.0
145
0.0
146
1.0
147
0.09
 71
     0
 72
     0
 73
     1
 74
     1
 75
     0
 76
     0
 77
     0
 78
     0
170
     0
171
     2
172
     0
173
     0
174
     0
175
     0
176
     0
177
     0
178
     0
  0
ENDTAB
  0
ENDSEC
  0
SECTION
  2
BLOCKS
  0
BLOCK
  8
0
  2
$MODEL_SPACE
 70
     0
 10
0.0
 20
0.0
 30
0.0
  3
$MODEL_SPACE
  1

  0
ENDBLK
  5
21
  8
0
  0
BLOCK
 67
     1
  8
0
  2
$PAPER_SPACE
 70
     0
 10
0.0
 20
0.0
 30
0.0
  3
$PAPER_SPACE
  1

  0
ENDBLK
  5
1D
 67
     1
  8
0
  0
ENDSEC
  0
SECTION
  2
ENTITIES
  0
LINE
  5
6F
  8
CSK_PARTS$MODIFICATIONS
 10
-15.10386770853797
 20
10.86122702140602
 30
0.0
 11
-29.14111691730822
 21
24.89847623015727
 31
0.0
  0
ARC
  5
70
  8
CSK_PARTS$MODIFICATIONS
 10
-33.22480000001408
 20
20.81479314744599
 30
0.0
 40
5.775200000000024
 50
45.00000000003826
 51
180.0000000000388
  0
LINE
  5
71
  8
CSK_PARTS$MODIFICATIONS
 10
-39.00000000001411
 20
20.81479314744208
 30
0.0
 11
-38.9999999999859
 21
-20.81479314748502
 31
0.0
  0
ARC
  5
72
  8
CSK_PARTS$MODIFICATIONS
 10
-33.22479999998589
 20
-20.81479314748111
 30
0.0
 40
5.775200000000005
 50
180.0000000000388
 51
315.0000000000391
  0
LINE
  5
73
  8
CSK_PARTS$MODIFICATIONS
 10
-29.14111691727455
 20
-24.89847623018688
 30
0.0
 11
-15.10386770852324
 21
-10.86122702141659
 31
0.0
  0
ARC
  5
74
  8
CSK_PARTS$MODIFICATIONS
 10
-19.18755119158334
 20
-6.777543772716625
 30
0.0
 40
5.77520040046496
 50
315.0000016440852
 51
359.9999983499929
  0
ARC
  5
75
  8
CSK_PARTS$MODIFICATIONS
 10
-16.18989473015058
 20
-6.777543939080666
 30
0.0
 40
2.777543939032199
 50
0.0000000010210043
 51
90.00000000102118
  0
LINE
  5
76
  8
CSK_PARTS$MODIFICATIONS
 10
-16.18989473020008
 20
-4.000000000048463
 30
0.0
 11
-18.99999999979957
 21
-4.000000000098552
 31
0.0
  0
ARC
  5
77
  8
CSK_PARTS$MODIFICATIONS
 10
-18.99999999985372
 20
-0.0000000000985578
 30
0.0
 40
3.999999999999994
 50
90.00000000028427
 51
270.0000000007755
  0
LINE
  5
78
  8
CSK_PARTS$MODIFICATIONS
 10
-18.99999999987356
 20
3.999999999901441
 30
0.0
 11
-16.18989473027408
 21
3.99999999990334
 31
0.0
  0
ARC
  5
79
  8
CSK_PARTS$MODIFICATIONS
 10
-16.18989473027595
 20
6.777543938935543
 30
0.0
 40
2.777543939032199
 50
270.0000000000387
 51
0.00000000003886
  0
ARC
  5
7A
  8
CSK_PARTS$MODIFICATIONS
 10
-19.18755116605747
 20
6.777543783441774
 30
0.0
 40
5.775200374813722
 50
0.0000015426728182
 51
44.99999845977412
  0
LINE
  5
7B
  8
CSK_PARTS$MODIFICATIONS
 10
15.10386770853062
 20
10.86122702141625
 30
0.0
 11
29.14111691729136
 21
24.898476230177
 31
0.0
  0
ARC
  5
7C
  8
CSK_PARTS$MODIFICATIONS
 10
33.22479999999999
 20
20.81479314746848
 30
0.0
 40
5.775200000000036
 50
0.000000000000141
 51
135.0000000000005
  0
LINE
  5
7D
  8
CSK_PARTS$MODIFICATIONS
 10
39.00000000000001
 20
20.8147931474685
 30
0.0
 11
38.99999999999999
 21
-20.81479314745861
 31
0.0
  0
ARC
  5
7E
  8
CSK_PARTS$MODIFICATIONS
 10
33.22479999999999
 20
-20.81479314745861
 30
0.0
 40
5.775200000000005
 50
224.9999999999996
 51
0.0000000000000705
  0
LINE
  5
7F
  8
CSK_PARTS$MODIFICATIONS
 10
29.14111691729141
 20
-24.89847623016714
 30
0.0
 11
15.10386770853059
 21
-10.86122702140637
 31
0.0
  0
ARC
  5
80
  8
CSK_PARTS$MODIFICATIONS
 10
19.18755119158795
 20
-6.777543772703627
 30
0.0
 40
5.775200400464977
 50
180.0000016500459
 51
224.9999983559536
  0
ARC
  5
81
  8
CSK_PARTS$MODIFICATIONS
 10
16.18989473015517
 20
-6.777543939069702
 30
0.0
 40
2.777543939032199
 50
89.99999999901766
 51
179.9999999990178
  0
LINE
  5
82
  8
CSK_PARTS$MODIFICATIONS
 10
16.18989473020279
 20
-4.000000000037499
 30
0.0
 11
18.99999999980228
 21
-4.000000000085684
 31
0.0
  0
ARC
  5
83
  8
CSK_PARTS$MODIFICATIONS
 10
18.99999999985372
 20
-0.0000000000856881
 30
0.0
 40
3.999999999999996
 50
269.9999999992633
 51
89.99999999975456
  0
LINE
  5
84
  8
CSK_PARTS$MODIFICATIONS
 10
18.99999999987085
 20
3.999999999914308
 30
0.0
 11
16.18989473027137
 21
3.999999999914305
 31
0.0
  0
ARC
  5
85
  8
CSK_PARTS$MODIFICATIONS
 10
16.18989473027136
 20
6.777543938946508
 30
0.0
 40
2.777543939032199
 50
179.9999999999999
 51
270.0000000000001
  0
ARC
  5
86
  8
CSK_PARTS$MODIFICATIONS
 10
19.18755116605285
 20
6.777543783454783
 30
0.0
 40
5.775200374813687
 50
135.0000015402646
 51
179.9999984573661
  0
LINE
  5
87
  8
CSK_PARTS$MODIFICATIONS
 10
20.8147931474685
 20
-39.00000000000001
 30
0.0
 11
-20.81479314745861
 21
-38.99999999999999
 31
0.0
  0
ARC
  5
88
  8
CSK_PARTS$MODIFICATIONS
 10
-20.81479314745861
 20
-33.22479999999999
 30
0.0
 40
5.775200000000005
 50
134.9999999999996
 51
270.0000000000001
  0
LINE
  5
89
  8
CSK_PARTS$MODIFICATIONS
 10
-24.89847623016714
 20
-29.14111691729141
 30
0.0
 11
-10.86122702140637
 21
-15.10386770853059
 31
0.0
  0
ARC
  5
8A
  8
CSK_PARTS$MODIFICATIONS
 10
-6.777543938697832
 20
-19.1875507912391
 30
0.0
 40
5.775199999999964
 50
70.5454493107447
 51
135.0000000000002
  0
ARC
  5
8B
  8
CSK_PARTS$MODIFICATIONS
 10
0.0000000000049348
 20
-0.0000000000002295
 30
0.0
 40
14.57417854597579
 50
250.5454493107447
 51
270.0
  0
ARC
  5
8C
  8
CSK_PARTS$MODIFICATIONS
 10
0.0000000000049637
 20
-0.000000000000107
 30
0.0
 40
14.57417854597591
 50
269.9999999999999
 51
289.4545506892551
  0
ARC
  5
8D
  8
CSK_PARTS$MODIFICATIONS
 10
6.777543938707706
 20
-19.18755079123914
 30
0.0
 40
5.775199999999974
 50
44.99999999999983
 51
109.4545506892552
  0
LINE
  5
8E
  8
CSK_PARTS$MODIFICATIONS
 10
10.86122702141625
 20
-15.10386770853062
 30
0.0
 11
24.898476230177
 21
-29.14111691729136
 31
0.0
  0
ARC
  5
8F
  8
CSK_PARTS$MODIFICATIONS
 10
20.81479314746848
 20
-33.22479999999999
 30
0.0
 40
5.775200000000036
 50
270.0000000000002
 51
45.0000000000005
  0
LINE
  5
90
  8
CSK_PARTS$MODIFICATIONS
 10
-10.86122702141625
 20
15.10386770853062
 30
0.0
 11
-24.898476230177
 21
29.14111691729136
 31
0.0
  0
ARC
  5
91
  8
CSK_PARTS$MODIFICATIONS
 10
-20.81479314746848
 20
33.22479999999998
 30
0.0
 40
5.775200000000028
 50
90.0000000000001
 51
225.0000000000005
  0
LINE
  5
92
  8
CSK_PARTS$MODIFICATIONS
 10
-20.8147931474685
 20
39.00000000000001
 30
0.0
 11
20.81479314745861
 21
38.99999999999999
 31
0.0
  0
ARC
  5
93
  8
CSK_PARTS$MODIFICATIONS
 10
20.81479314745861
 20
33.22479999999999
 30
0.0
 40
5.775200000000005
 50
314.9999999999997
 51
90.00000000000009
  0
LINE
  5
94
  8
CSK_PARTS$MODIFICATIONS
 10
24.89847623016714
 20
29.14111691729141
 30
0.0
 11
10.86122702140637
 21
15.10386770853059
 31
0.0
  0
ARC
  5
95
  8
CSK_PARTS$MODIFICATIONS
 10
6.777543938697829
 20
19.18755079123912
 30
0.0
 40
5.775199999999979
 50
250.5454493107448
 51
315.0000000000001
  0
ARC
  5
96
  8
CSK_PARTS$MODIFICATIONS
 10
-0.0000000000049348
 20
0.0000000000002295
 30
0.0
 40
14.57417854597579
 50
70.54544931074466
 51
90.0
  0
ARC
  5
97
  8
CSK_PARTS$MODIFICATIONS
 10
-0.0000000000049757
 20
0.000000000000178
 30
0.0
 40
14.57417854597584
 50
89.99999999999984
 51
109.4545506892551
  0
ARC
  5
98
  8
CSK_PARTS$MODIFICATIONS
 10
-6.777543938707704
 20
19.18755079123915
 30
0.0
 40
5.775199999999984
 50
224.9999999999999
 51
289.4545506892552
  0
ENDSEC
  0
EOF
